Patient4_TMGait_0pt2_03_right_17_GRF.mot
version=1
nRows=32
nColumns=19
inDegrees=no
endheader
time	F1x	F1y	F1z	M1x	M1y	M1z	F2x	F2y	F2z	M2x	M2y	M2z	EC1x	EC1y	EC1z	EC2x	EC2y	EC2z
36.44	-15.5604	711.7451	61.5591	-250.6266	-69.4987	744.8571	-1.5423	75.2899	-5.3791	26.9397	5.9936	70.2439	-0.0592	0.0182	-0.0073	-0.0462	0.0165	0.9585
36.4618	-17.3	743.6851	65.174	-261.7434	-73.1258	777.6495	-1.6106	66.9407	-5.0306	23.8293	5.6213	62.7503	-0.0592	0.0182	-0.0073	-0.0462	0.0165	0.9585
36.4836	-19.0931	778.9229	68.7418	-274.0418	-76.6253	813.4681	-1.9424	57.3065	-4.5608	20.3018	5.2248	53.9841	-0.0592	0.0182	-0.0073	-0.0462	0.0165	0.9585
36.5054	-20.6162	814.2092	71.8258	-286.423	-79.4606	848.8195	-2.4356	47.1412	-4.0005	16.6296	4.8028	44.6322	-0.0592	0.0182	-0.0073	-0.0462	0.0165	0.9585
36.5271	-21.5177	846.1333	74.0991	-297.7215	-81.1923	880.0754	-2.9228	37.1384	-3.379	13.0535	4.331	35.3478	-0.0592	0.0182	-0.0073	-0.0462	0.0165	0.9585
36.5489	-21.5017	871.4627	75.3742	-306.8086	-81.5476	903.855	-3.2096	27.8223	-2.7247	9.7497	3.7723	26.6392	-0.0592	0.0182	-0.0073	-0.0462	0.0165	0.9585
36.5707	-20.3911	887.3452	75.6025	-312.6615	-80.4425	917.2641	-3.1363	19.5595	-2.0671	6.8379	3.0981	18.8716	-0.0592	0.0182	-0.0073	-0.0462	0.0165	0.9585
36.5925	-18.158	891.6051	74.8406	-314.4742	-77.955	918.1873	-2.6529	12.6099	-1.4462	4.4011	2.3258	12.3028	-0.0592	0.0182	-0.0073	-0.0462	0.0165	0.9585
36.6143	-14.8979	883.2539	73.1944	-311.8534	-74.2574	905.7808	-1.9007	7.1334	-0.91262	2.4894	1.5486	7.0876	-0.0592	0.0182	-0.0073	-0.0462	0.0165	0.9585
36.6361	-10.7845	862.9864	70.791	-305.0094	-69.5674	880.9376	-1.0907	3.0719	-0.49462	1.0768	0.8631	3.1779	-0.0592	0.0182	-0.0073	-0.0462	0.0165	0.9585
36.6579	-6.037	833.3546	67.7799	-294.8236	-64.1346	846.4199	-0.34827	0.13918	-0.18742	0.059027	0.30504	0.30484	-0.0592	0.0182	-0.0073	-0.0462	0.0165	0.9585
36.6796	-0.89603	798.4056	64.338	-282.7234	-58.2341	806.4636	0.27235	-2.0393	0.028297	-0.69816	-0.12899	-1.8911	-0.0592	0.0182	-0.0073	-0.0462	0.0165	0.9585
36.7014	4.4112	763.0154	60.6683	-270.4441	-52.1505	766.076	0.75612	-3.8148	0.18017	-1.3209	-0.46175	-3.7473	-0.0592	0.0182	-0.0073	-0.0462	0.0165	0.9585
36.7232	9.6933	732.0474	57.002	-259.7226	-46.1689	730.1768	1.1029	-5.4351	0.29332	-1.898	-0.71651	-5.4958	-0.0592	0.0182	-0.0073	-0.0462	0.0165	0.9585
36.745	14.7921	709.4377	53.5947	-251.9696	-40.5799	702.7029	1.3138	-6.9798	0.38378	-2.4582	-0.90631	-7.1933	-0.0592	0.0182	-0.0073	-0.0462	0.0165	0.9585
36.7668	19.5764	697.4139	50.7061	-247.9857	-35.6642	685.8728	1.3771	-8.3028	0.45192	-2.9496	-1.0215	-8.656	-0.0592	0.0182	-0.0073	-0.0462	0.0165	0.9585
36.7886	23.9315	696.0185	48.5528	-247.7804	-31.6566	679.7453	1.2615	-8.9751	0.48063	-3.2184	-1.0264	-9.3915	-0.0592	0.0182	-0.0073	-0.0462	0.0165	0.9585
36.8104	27.7412	703.0715	47.2594	-250.56	-28.7092	682.2147	0.9145	-8.239	0.43623	-2.9936	-0.86008	-8.5536	-0.0592	0.0182	-0.0073	-0.0462	0.0165	0.9585
36.8321	30.8941	714.6755	46.8397	-254.9107	-26.8735	689.5237	0.26755	-4.9843	0.2632	-1.876	-0.43232	-4.9149	-0.0592	0.0182	-0.0073	-0.0462	0.0165	0.9585
36.8539	33.3263	726.1692	47.1996	-259.1405	-26.0896	697.1988	-0.75104	2.2176	-0.11724	0.65215	0.37437	3.0897	-0.0592	0.0182	-0.0073	-0.0462	0.0165	0.9585
36.8757	35.032	733.1395	48.1494	-261.644	-26.1908	701.0258	-2.1906	14.9852	-0.79909	5.1837	1.6875	17.219	-0.0592	0.0182	-0.0073	-0.0462	0.0165	0.9585
36.8975	36.0321	732.1503	49.426	-261.17	-26.9335	697.7463	-4.0409	34.8508	-1.8722	12.2871	3.6102	39.1228	-0.0592	0.0182	-0.0073	-0.0462	0.0165	0.9585
36.9193	36.3341	721.0893	50.7268	-256.9524	-28.0435	685.3866	-6.1838	62.7836	-3.3975	22.336	6.1735	69.8108	-0.0592	0.0182	-0.0073	-0.0462	0.0165	0.9585
36.9411	35.9223	699.2044	51.7381	-248.7292	-29.2406	663.2815	-8.514	98.6531	-5.3957	35.3091	9.3572	109.0567	-0.0592	0.0182	-0.0073	-0.0462	0.0165	0.9585
36.9629	34.7869	667.0423	52.1648	-236.7215	-30.2551	631.9871	-11.2597	141.0899	-8.093	50.7039	13.4586	155.2883	-0.0592	0.0182	-0.0073	-0.0462	0.0165	0.9585
36.9846	32.9347	626.214	51.7974	-221.5391	-30.885	593.0338	-14.595	187.4652	-11.7613	67.534	18.7887	205.615	-0.0592	0.0182	-0.0073	-0.0462	0.0165	0.9585
37.0064	30.4357	579.2209	50.5557	-204.1116	-31.018	548.7413	-18.2623	234.5555	-16.2579	84.6073	25.0683	256.5262	-0.0592	0.0182	-0.0073	-0.0462	0.0165	0.9585
37.0282	27.4911	529.356	48.4887	-185.6507	-30.6049	502.104	-21.788	279.9504	-20.9857	101.0527	31.4821	305.3872	-0.0592	0.0182	-0.0073	-0.0462	0.0165	0.9585
37.05	24.3913	480.194	45.7763	-167.4649	-29.682	456.3377	-24.7151	322.4163	-25.3356	116.4318	37.2232	350.8493	-0.0592	0.0182	-0.0073	-0.0462	0.0165	0.9585
37.0718	21.4123	434.7679	42.6829	-150.6609	-28.3688	414.1473	-26.7473	361.2391	-28.9808	130.4788	41.8433	392.1626	-0.0592	0.0182	-0.0073	-0.0462	0.0165	0.9585
37.0936	18.7512	394.9297	39.4821	-135.9142	-26.8204	377.1504	-27.794	395.7657	-31.8155	142.9365	45.2078	428.6821	-0.0592	0.0182	-0.0073	-0.0462	0.0165	0.9585
37.1154	16.5327	361.2081	36.4168	-123.4218	-25.1948	345.7438	-27.9189	425.3916	-33.8117	153.5669	47.3292	459.8328	-0.0592	0.0182	-0.0073	-0.0462	0.0165	0.9585
